<svg width="64" height="64" viewBox="0 0 64 64" fill="none" xmlns="http://www.w3.org/2000/svg">
<g clip-path="url(#clip0_133_1430)">
<path d="M39.2373 23.1174L32.8373 29.0774L26.896 17.0881L29.9653 10.1947C30.7413 8.81875 32.0107 8.80275 32.7867 10.1947L39.2373 23.1174Z" fill="#FFA000"/>
<path d="M32.8373 29.0746L8.89331 51.3439L26.896 17.0879L32.8373 29.0746Z" fill="#F57F17"/>
<path d="M46.256 14.0026C47.4027 12.9093 48.584 13.28 48.8827 14.8293L55.1067 51.0426L34.4613 63.4373C33.736 63.8426 31.816 64 31.816 64C31.816 64 30.0693 63.7866 29.4 63.4186L8.896 51.344L46.256 14.0026Z" fill="#FFCA28"/>
<path d="M26.896 17.0881L8.896 51.3441L16.9173 1.27206C17.2187 -0.279943 18.0987 -0.437276 18.8907 0.936057L26.896 17.0881Z" fill="#FFA000"/>
</g>
<defs>
<clipPath id="clip0_133_1430">
<rect width="64" height="64" fill="white"/>
</clipPath>
</defs>
</svg>
