<svg width="64" height="64" viewBox="0 0 64 64" fill="none" xmlns="http://www.w3.org/2000/svg">
<path d="M53.6428 15.736C53.4262 15.4486 53.1948 15.1727 52.9495 14.9093C53.1963 14.2518 53.3837 13.5736 53.5095 12.8827C53.881 10.3552 53.5584 7.77427 52.5761 5.416C52.5761 5.416 49.5895 4.48267 42.7361 9.096C39.8266 8.29264 36.8212 7.88893 33.8028 7.896C30.7757 7.89069 27.7618 8.29434 24.8428 9.096C17.9895 4.42933 15.0028 5.416 15.0028 5.416C14.0324 7.74929 13.7099 10.3013 14.0695 12.8027C14.196 13.5223 14.3925 14.2279 14.6561 14.9093C14.4161 15.176 14.1762 15.4693 13.9628 15.736C11.9729 18.2321 10.9166 21.3444 10.9762 24.536C10.9698 25.2929 11.0054 26.0497 11.0828 26.8027C11.9362 38.616 19.8028 41.3627 27.2962 42.216C26.2356 43.2023 25.5164 44.5005 25.2428 45.9227C24.995 46.8712 24.8783 47.8492 24.8962 48.8293V52.3227C21.9122 52.5893 18.8508 52.1547 17.9015 49.4933C16.8824 46.9461 15.1923 44.7224 13.0108 43.0587C12.8514 42.9724 12.6997 42.8724 12.5575 42.76C12.3659 42.2566 12.0265 41.8228 11.5839 41.5159C11.1413 41.2089 10.6161 41.043 10.0775 41.04H10.0641C9.35921 41.04 8.68295 41.3191 8.18323 41.8163C7.68351 42.3135 7.40101 42.9884 7.39748 43.6933C7.38948 45.8587 9.55748 47.2587 10.4455 47.7333C11.483 48.7787 12.3175 50.0075 12.9068 51.3573C13.8775 54.0853 16.7175 58.232 24.8162 57.6933L24.8215 57.9547L24.8322 58.6693C24.8322 59.3766 25.1131 60.0549 25.6132 60.555C26.1133 61.055 26.7916 61.336 27.4988 61.336H40.0695C40.7767 61.336 41.455 61.055 41.9551 60.555C42.4552 60.0549 42.7361 59.3766 42.7361 58.6693C42.7361 58.6693 42.7575 50.2427 42.7575 48.8293C42.7752 47.8492 42.6586 46.8712 42.4108 45.9227L42.4055 45.9067L42.4162 45.9227C42.3922 45.8293 42.3575 45.7547 42.3308 45.664C42.0337 44.3428 41.3462 43.1414 40.3575 42.216L40.3895 42.272L40.3362 42.2187C47.8295 41.3653 55.6428 38.5653 56.4962 26.8053C56.5735 26.0523 56.6091 25.2956 56.6028 24.5387C56.6501 21.3534 55.6056 18.2452 53.6428 15.736Z" fill="#6563FF"/>
</svg>
