<svg width="64" height="64" viewBox="0 0 64 64" fill="none" xmlns="http://www.w3.org/2000/svg">
<path d="M51.2401 26.6667L44.9734 30.4934V22.4934L41.4268 24.7734V36.0001L38.4801 37.8801L35.2401 36.0001V32.5067L41.4268 28.6401L38.5201 26.8267L32.1068 30.5867L25.6668 26.5867L19.1734 30.4934L12.8001 26.6667L6.36011 30.3734V37.7467L9.52011 39.7334V32.4401L12.8001 30.4801L15.8534 32.4001V39.8001L19.2001 37.8134L25.6134 41.5467L32.0001 37.8134L38.5201 41.5467L45.0134 37.8134L51.1201 41.5467V37.5467L48.1334 36.0001V32.3201L51.2668 30.5067L54.3601 32.3867V35.7867L57.6001 33.9067V30.4401L51.2401 26.6667ZM28.8268 36.0001L25.6268 37.8401L22.4268 36.0001V32.3334L25.6268 30.4934L28.8268 32.3334V36.0001Z" fill="white"/>
<path d="M49.5066 33.0133V35.04L51.2666 36.0533L53.0133 35.04V33.0133L51.2666 32L49.5066 33.0133Z" fill="white"/>
</svg>
