<svg width="64" height="64" viewBox="0 0 64 64" fill="none" xmlns="http://www.w3.org/2000/svg">
<path d="M32 37.7226C35.162 37.7226 37.7253 35.1593 37.7253 31.9973C37.7253 28.8353 35.162 26.272 32 26.272C28.838 26.272 26.2747 28.8353 26.2747 31.9973C26.2747 35.1593 28.838 37.7226 32 37.7226Z" fill="#53C1DE"/>
<path d="M12.0373 42.1359C12.6 42.3226 13.1627 42.5119 13.7387 42.6746C13.552 43.4239 13.3893 44.1626 13.2373 44.9253C11.9253 51.8639 12.9493 57.3626 16.224 59.2506C19.6 61.1999 25.2747 59.1999 30.8 54.3626C31.2373 53.9759 31.6747 53.5759 32.112 53.1493C32.6613 53.6879 33.2373 54.1999 33.8107 54.6986C39.16 59.2986 44.448 61.1599 47.712 59.2746C51.088 57.3253 52.1867 51.4133 50.7627 44.2133C50.6472 43.6484 50.5219 43.0857 50.3867 42.5253C50.7867 42.4133 51.1733 42.2879 51.5627 42.1626C58.776 39.7759 64 35.9119 64 31.9493C64 28.1626 59.0747 24.4879 52.2747 22.1493C51.6035 21.9259 50.9287 21.7108 50.2507 21.5093C50.3627 21.0479 50.464 20.5839 50.5627 20.1226C52.1013 12.6719 51.088 6.68793 47.6747 4.71193C44.3867 2.82393 39.024 4.7866 33.6 9.51193C33.0613 9.97326 32.5387 10.4613 32.0373 10.9493C31.6974 10.6222 31.3515 10.3012 31 9.9866C25.312 4.93593 19.6133 2.8106 16.2 4.79993C12.9253 6.70126 11.9493 12.3386 13.3253 19.3839C13.464 20.0853 13.6133 20.7706 13.7867 21.4719C12.9867 21.6959 12.2 21.9466 11.4613 22.2106C4.78667 24.5226 0 28.1733 0 31.9493C0 35.8506 5.09867 39.7599 12.0373 42.1359ZM29.0373 52.3199C26.9763 54.2092 24.5867 55.705 21.9867 56.7333C20.6 57.3946 19 57.4586 17.5733 56.8959C15.5867 55.7466 14.76 51.3333 15.8853 45.3946C16.024 44.6959 16.1733 43.9946 16.3467 43.3066C19.1467 43.9066 21.9707 44.3199 24.8347 44.5306C26.487 46.871 28.2909 49.1006 30.2347 51.2053C29.8347 51.5919 29.4347 51.9679 29.0347 52.3173L29.0373 52.3199ZM44.912 28.8479C44.3286 27.7449 43.724 26.6531 43.0987 25.5733C42.4853 24.5119 41.848 23.4613 41.1867 22.4239C43.2 22.6746 45.1253 23.0106 46.9253 23.4239C46.3493 25.2658 45.6773 27.0763 44.912 28.8479ZM44.936 35.0719C45.736 36.8853 46.4373 38.7226 47.048 40.6106C45.1093 41.0479 43.1493 41.3866 41.1733 41.6106C42.5212 39.4863 43.7766 37.3047 44.936 35.0719ZM43.4907 31.9626C41.8132 35.4139 39.9012 38.7461 37.768 41.9359C35.9067 42.0746 33.968 42.1359 32.0053 42.1359C30.0427 42.1359 28.144 42.0746 26.3067 41.9599C24.1371 38.7939 22.2107 35.4679 20.544 32.0106H20.5387C22.1918 28.5579 24.1058 25.2363 26.264 22.0746C30.0846 21.7918 33.9208 21.7918 37.7413 22.0746C38.8027 23.6506 39.816 25.2613 40.7787 26.9119C41.7387 28.5648 42.6432 30.2493 43.4907 31.9626ZM20.8853 25.5973C20.272 26.6586 19.672 27.7439 19.1093 28.8453C18.3544 27.0629 17.6869 25.2447 17.1093 23.3973C18.9093 22.9973 20.8213 22.6719 22.808 22.4213C22.1493 23.4586 21.4987 24.5199 20.8853 25.5973ZM19.112 35.1706C19.688 36.2719 20.2747 37.3599 20.8987 38.4346C21.536 39.5226 22.1867 40.6106 22.8747 41.6719C20.9264 41.4596 18.9904 41.1463 17.0747 40.7333C17.624 38.9333 18.312 37.0719 19.112 35.1706ZM32.1013 49.2799C30.7633 47.8329 29.4994 46.3189 28.3147 44.7439C30.8097 44.846 33.308 44.8416 35.8027 44.7306C34.6535 46.314 33.4179 47.8327 32.1013 49.2799ZM48.44 53.0346C48.3814 53.7927 48.168 54.5307 47.813 55.2031C47.458 55.8755 46.969 56.468 46.376 56.9439C44.3893 58.0933 40.152 56.5946 35.576 52.6693C35.0376 52.2007 34.5086 51.7215 33.9893 51.2319C35.8994 49.1229 37.6618 46.8847 39.264 44.5333C42.1329 44.2955 44.9817 43.857 47.7893 43.2213C47.9147 43.7333 48.0267 44.2453 48.128 44.7466C48.7384 47.4669 48.8442 50.2761 48.44 53.0346ZM49.5253 24.0853C50.176 24.2719 50.8 24.4719 51.4 24.6719C57.224 26.6719 61.312 29.6479 61.312 31.9226C61.312 34.3733 56.9493 37.5359 50.712 39.5973C50.3627 39.7093 50.0133 39.8213 49.6507 39.9226C48.7695 37.1951 47.7048 34.5304 46.464 31.9466C47.664 29.3973 48.6773 26.7706 49.5253 24.0853ZM35.36 11.5359C40.0133 7.48793 44.3493 5.90126 46.3253 7.03726C48.4373 8.2506 49.2507 13.1493 47.9253 19.5866C47.8419 20.0063 47.7459 20.4234 47.6373 20.8373C44.8653 20.2099 42.0547 19.7672 39.224 19.5119C37.6012 17.1806 35.822 14.9622 33.8987 12.8719C34.3867 12.4106 34.8613 11.9733 35.36 11.5359ZM32.0267 14.7866C33.3387 16.2106 34.576 17.7093 35.7253 19.2586C33.2475 19.1466 30.7658 19.1466 28.288 19.2586C29.512 17.6479 30.776 16.1493 32.0267 14.7866ZM17.5253 7.12526C19.6267 5.90126 24.288 7.6506 29.2 11.9999C29.512 12.2746 29.824 12.5759 30.1493 12.8746C28.214 14.9625 26.4224 17.1792 24.7867 19.5093C21.9616 19.7619 19.1558 20.1966 16.3867 20.8106C16.224 20.1733 16.088 19.5226 15.9493 18.8719C14.7733 12.8213 15.5493 8.26126 17.5253 7.12526ZM12.3387 24.7466C13.0507 24.4959 13.776 24.2719 14.5013 24.0586C15.3512 26.771 16.3737 29.4262 17.5627 32.0079C16.3627 34.6213 15.3253 37.3199 14.464 40.0693L14.4613 40.0719C13.9406 39.9233 13.4239 39.7606 12.912 39.5839C10.2507 38.7466 7.224 37.4213 5.03733 35.6853C4.41312 35.2535 3.88305 34.6995 3.47922 34.0569C3.0754 33.4142 2.80622 32.6963 2.688 31.9466C2.688 29.6586 6.63733 26.7333 12.3387 24.7466Z" fill="#53C1DE"/>
</svg>
