<svg width="64" height="64" viewBox="0 0 64 64" fill="none" xmlns="http://www.w3.org/2000/svg">
<path d="M39.328 3.66675C45.76 12.2961 48.3013 22.5601 46.0587 31.7841C45.8782 32.5969 45.6284 33.3927 45.312 34.1627C44.8843 33.9282 44.4695 33.6709 44.0693 33.3921L44.112 33.4214C44.112 33.4214 29.608 24.4961 14.0587 8.87475C13.608 8.42942 22.432 21.3681 32.3013 31.6347C27.6667 28.9547 14.5067 19.5867 6.28 11.9974C7.17867 13.6321 8.52533 15.2694 9.86933 16.9067C16.7493 25.6854 25.7227 36.3921 36.4907 44.5734C28.864 49.1894 18.2453 49.4827 7.47733 44.5734C4.784 43.3867 2.544 41.8988 0 40.1121C4.48533 47.1041 11.5147 53.5041 19.8907 56.9228C29.9093 61.2401 40.0773 60.9414 47.4053 56.9228H47.5573C47.856 56.7734 48.1547 56.6267 48.4533 56.3281C52.0427 54.5414 59.072 52.6081 62.96 60.0481C64.0053 62.1307 65.9493 52.4614 58.624 43.5361C58.7733 43.2401 58.7707 42.9414 58.92 42.6454C62.5093 28.6587 53.984 12.2961 39.328 3.66675Z" fill="#E94E36"/>
</svg>
