<svg width="64" height="64" viewBox="0 0 64 64" fill="none" xmlns="http://www.w3.org/2000/svg">
<path d="M42.5 4H21.5C11.835 4 4 11.835 4 21.5V42.5C4 52.165 11.835 60 21.5 60H42.5C52.165 60 60 52.165 60 42.5V21.5C60 11.835 52.165 4 42.5 4Z" fill="url(#paint0_linear_133_1391)"/>
<path d="M39.502 18.1966C39.502 17.2548 38.4478 17.2548 37.979 17.3725C38.635 16.8546 39.4045 16.9801 39.6778 17.1371L46.0135 20.2437C46.6173 20.5397 47.0003 21.1556 47.0003 21.8306V42.2677C47.0003 42.9517 46.607 43.574 45.991 43.8652L40.0293 46.6842C39.6193 46.8607 38.7288 47.2965 37.979 46.6842C38.9163 46.861 39.424 46.1937 39.502 45.7425V18.1966Z" fill="url(#paint1_linear_133_1391)"/>
<path d="M38.055 17.3556C38.5522 17.2573 39.502 17.3029 39.502 18.1966V25.2313L20.2931 39.7628C19.9574 40.0168 19.4848 39.9748 19.1989 39.6653L17.2191 37.523C16.909 37.1875 16.9307 36.662 17.2674 36.3535L37.9787 17.3726L38.055 17.3556Z" fill="url(#paint2_linear_133_1391)"/>
<path d="M39.502 38.8255L20.2931 24.2939C19.9574 24.0399 19.4848 24.082 19.1989 24.3915L17.2191 26.5337C16.909 26.8692 16.9307 27.3947 17.2674 27.7032L37.9787 46.6842C38.916 46.8607 39.4237 46.1937 39.502 45.7425V38.8255Z" fill="url(#paint3_linear_133_1391)"/>
<defs>
<linearGradient id="paint0_linear_133_1391" x1="4" y1="4" x2="52" y2="60" gradientUnits="userSpaceOnUse">
<stop stop-color="white"/>
<stop offset="1" stop-color="#ACCCFF"/>
</linearGradient>
<linearGradient id="paint1_linear_133_1391" x1="42.4895" y1="17" x2="42.4895" y2="47" gradientUnits="userSpaceOnUse">
<stop stop-color="#32B5F1"/>
<stop offset="1" stop-color="#2B9FED"/>
</linearGradient>
<linearGradient id="paint2_linear_133_1391" x1="39.502" y1="20.7863" x2="18.0947" y2="38.7555" gradientUnits="userSpaceOnUse">
<stop stop-color="#0F6FB3"/>
<stop offset="0.271" stop-color="#1279B7"/>
<stop offset="0.421" stop-color="#1176B5"/>
<stop offset="0.618" stop-color="#0E69AC"/>
<stop offset="0.855" stop-color="#0F70AF"/>
<stop offset="1" stop-color="#0F6DAD"/>
</linearGradient>
<linearGradient id="paint3_linear_133_1391" x1="18.2377" y1="25.5537" x2="39.5847" y2="43.229" gradientUnits="userSpaceOnUse">
<stop stop-color="#1791D2"/>
<stop offset="1" stop-color="#1173C5"/>
</linearGradient>
</defs>
</svg>
