<svg width="64" height="64" viewBox="0 0 64 64" fill="none" xmlns="http://www.w3.org/2000/svg">
<path d="M49.0666 46.0267C48.5333 45.76 47.4666 45.4934 46.6666 44.96C45.8666 48.16 45.0666 51.8934 44.2666 55.8934L61.0666 53.2267L55.4666 15.6267L55.1999 15.8934C54.1333 16.96 52.7999 20.4267 50.1333 30.56H50.3999L51.1999 34.8267L49.0666 35.0934C48.7999 36.4267 48.5333 37.76 47.9999 39.36C52.5333 41.76 50.1333 47.6267 49.8666 47.6267C49.5999 47.6267 49.5999 47.6267 49.5999 47.36C49.5999 47.0934 49.8666 46.2934 49.0666 46.0267Z" fill="#3B97CF"/>
<path d="M63.2002 11.3601C62.6669 12.9601 61.8669 14.8267 61.3335 14.8267C60.5335 14.8267 58.6669 14.2934 58.1335 13.4934C57.8669 12.9601 57.0669 12.1601 55.7335 12.1601C54.9335 12.1601 54.4002 12.6934 53.3335 13.2267C51.6802 14.5334 49.6269 20.4534 47.6269 27.7067L43.6802 27.0401C45.4402 21.6001 46.7735 17.0934 46.9335 15.3601C46.9335 14.5601 47.2002 10.8267 44.8002 7.89339C43.2002 6.29339 41.6002 5.76006 40.0002 5.76006C38.6669 5.76006 37.0669 6.29339 36.0002 6.29339C35.4669 6.29339 34.6669 6.56006 34.6669 6.56006C34.6669 6.56006 34.4002 6.56006 34.4002 6.29339C34.4002 5.86672 35.2269 5.44006 35.5735 5.28006C35.2535 5.33339 34.6135 5.49339 34.4002 5.49339C34.1335 5.49339 34.1335 5.22672 34.4002 4.96006C34.6669 4.96006 35.4669 4.69339 35.7335 4.42672C36.8002 3.89339 37.6002 3.62672 38.6669 3.36006C41.0669 2.56006 43.7335 2.56006 46.1335 2.82672C47.7335 2.82672 49.6002 2.82672 51.2002 3.36006C52.8002 3.89339 54.4002 4.42672 55.7335 5.76006C56.5335 6.56006 57.6002 7.36006 58.6669 7.36006C59.7335 7.36006 60.2669 7.09339 60.5335 6.82672C61.0669 6.82672 63.2002 7.36006 63.4669 7.62672C63.7335 7.89339 63.7335 9.76006 63.2002 11.3601Z" fill="#CFD8DC"/>
<path d="M26.9333 16.6934C27.7333 16.1601 28.8 16.1601 29.3333 16.9601L39.4667 28.6934C41.6 22.2934 43.4667 16.6934 43.4667 14.8267C43.7333 14.2934 43.7333 12.4267 42.9333 10.5601L0 17.2267L6.93333 61.7601L29.8667 58.0267C29.6 56.1601 35.7333 40.1601 36.8 37.2267L25.0667 39.0934L26.6667 34.2934L34.9333 32.9601L37.0667 35.6267C37.0667 35.6267 37.6 34.2934 37.6 33.7601L26.1333 19.6267C25.6 18.8267 25.6 17.7601 26.4 17.2267L26.9333 16.6934ZM10.9333 36.9601L18.1333 35.6267L16.2667 40.4267L11.4667 41.2267L10.9333 36.9601ZM26.4 23.3601L27.2 23.6267C28.2667 23.8934 28.5333 24.9601 28.2667 26.0267L20.2667 47.3601L15.4667 53.7601L16 45.7601L24 24.4267C24.2667 23.3601 25.3333 23.0934 26.4 23.3601Z" fill="#3B97CF"/>
<path d="M47.6266 27.7067C43.9199 41.36 40.4532 59.7334 40.2666 60.96C39.7332 62.0267 38.6665 62.8267 35.7332 62.0267C32.7999 61.2267 32.7999 59.8934 33.3332 57.4934C33.7065 55.84 39.7865 39.0934 43.6799 27.04L47.6266 27.7067Z" fill="#1F2228"/>
</svg>
