<svg width="64" height="64" viewBox="0 0 64 64" fill="none" xmlns="http://www.w3.org/2000/svg">
<path fill-rule="evenodd" clip-rule="evenodd" d="M27.6935 43.6003C28.155 44.0618 28.155 44.8101 27.6935 45.2716C27.232 45.7331 26.4836 45.7331 26.0221 45.2716L22.2929 41.5424C21.8314 41.0809 21.8314 40.3325 22.2929 39.871L26.0221 36.1418C26.4836 35.6803 27.232 35.6803 27.6935 36.1418C28.155 36.6033 28.155 37.3516 27.6935 37.8131L24.7999 40.7068L27.6935 43.6003ZM37.9781 45.2716C37.5166 45.7331 36.7682 45.7331 36.3067 45.2716C35.8452 44.8101 35.8452 44.0618 36.3067 43.6003L39.2002 40.7066L36.3067 37.813C35.8452 37.3515 35.8452 36.6031 36.3067 36.1416C36.7682 35.6801 37.5166 35.6801 37.9781 36.1416L41.7074 39.8709C42.1689 40.3324 42.1689 41.0808 41.7074 41.5423L37.9781 45.2715V45.2716ZM32.6567 33.6953C32.825 33.0654 33.4721 32.6913 34.1019 32.8596C34.7316 33.028 35.1059 33.675 34.9375 34.3048L31.3434 47.7184C31.1751 48.3483 30.528 48.7224 29.8982 48.554C29.2685 48.3856 28.8942 47.7386 29.0626 47.1089L32.6567 33.6953ZM10.4577 13.8843C9.80499 13.8843 9.27574 13.355 9.27574 12.7023C9.27574 12.0495 9.80499 11.5203 10.4577 11.5203H10.4875C11.1402 11.5203 11.6695 12.0495 11.6695 12.7023C11.6695 13.355 11.1402 13.8843 10.4875 13.8843H10.4577ZM15.9765 13.8843C15.3237 13.8843 14.7945 13.355 14.7945 12.7023C14.7945 12.0495 15.3237 11.5203 15.9765 11.5203H16.0062C16.659 11.5203 17.1882 12.0495 17.1882 12.7023C17.1882 13.355 16.659 13.8843 16.0062 13.8843H15.9765ZM21.7674 13.8843C21.1146 13.8843 20.5854 13.355 20.5854 12.7023C20.5854 12.0495 21.1146 11.5203 21.7674 11.5203H53.5425C54.1952 11.5203 54.7245 12.0495 54.7245 12.7023C54.7245 13.355 54.1952 13.8843 53.5425 13.8843H21.7674ZM5.42137 6.18213C4.47937 6.18213 3.62374 6.56663 3.00437 7.18625C2.38487 7.80575 2.00024 8.66125 2.00024 9.60325V54.3965C2.00024 55.3385 2.38474 56.1941 3.00437 56.8135C3.62387 57.433 4.47937 57.8176 5.42137 57.8176H58.5789C59.5209 57.8176 60.3764 57.4331 60.996 56.8135C61.6155 56.194 62.0001 55.3385 62.0001 54.3965V9.60325C62.0001 8.66125 61.6156 7.80563 60.996 7.18625C60.3765 6.56675 59.5209 6.18213 58.5789 6.18213H5.42137ZM59.636 19.0484H4.36424V54.3965C4.36424 54.686 4.48349 54.9501 4.67562 55.1421C4.86774 55.3343 5.13187 55.4535 5.42137 55.4535H58.5789C58.8684 55.4535 59.1325 55.3343 59.3246 55.1421C59.5167 54.95 59.636 54.6859 59.636 54.3965V19.0484ZM4.36424 16.6844H59.6361V9.60325C59.6361 9.31375 59.5167 9.04963 59.3247 8.8575C59.1326 8.66538 58.8685 8.54613 58.579 8.54613H5.42137C5.13187 8.54613 4.86774 8.6655 4.67562 8.8575C4.48349 9.0495 4.36424 9.31375 4.36424 9.60325V16.6844ZM21.7207 26.5789C19.8411 28.4585 18.591 30.9676 18.3137 33.7626H18.2749C15.7712 33.7626 13.496 34.786 11.8472 36.4348C10.1985 38.0835 9.17512 40.3588 9.17512 42.8624C9.17512 45.366 10.1985 47.6413 11.8472 49.29C13.496 50.9388 15.7712 51.9621 18.2749 51.9621H45.7254C48.229 51.9621 50.5042 50.9388 52.153 49.29C53.8017 47.6413 54.8251 45.366 54.8251 42.8624C54.8251 40.8174 54.1402 38.9231 52.9884 37.3975C51.9865 36.0706 50.6297 35.024 49.0621 34.401C48.9325 32.9294 48.2814 31.6071 47.2947 30.6205C46.1881 29.5139 44.6592 28.8293 42.9707 28.8293C42.2967 28.8293 41.6411 28.9423 41.0222 29.1506C40.8472 29.2096 40.6755 29.2764 40.5077 29.3506C39.6006 27.6641 38.2961 26.2231 36.7196 25.153C34.8231 23.8656 32.5396 23.1135 30.0864 23.1135C26.8195 23.1135 23.8616 24.4379 21.7206 26.5789H21.7207ZM30.0865 25.4775C27.4721 25.4775 25.1052 26.5371 23.3921 28.2503C21.679 29.9634 20.6194 32.3303 20.6194 34.9446C20.6194 35.5975 20.0901 36.1266 19.4374 36.1266H18.275C16.4239 36.1266 14.7401 36.8848 13.5186 38.1061C12.2972 39.3275 11.5391 41.0113 11.5391 42.8625C11.5391 44.7138 12.2972 46.3974 13.5186 47.6189C14.74 48.8404 16.4237 49.5984 18.275 49.5984H45.7255C47.5766 49.5984 49.2604 48.8403 50.4819 47.6189C51.7034 46.3975 52.4614 44.7138 52.4614 42.8625C52.4614 41.3476 51.9556 39.9464 51.1049 38.8196C50.2311 37.6624 48.9955 36.7929 47.5714 36.3845C47.0072 36.224 46.6564 35.6796 46.7211 35.1154L46.7244 35.0603C46.7257 35.0168 46.7222 35.0685 46.7222 34.9446C46.7222 33.9086 46.3024 32.9708 45.6236 32.292C44.9449 31.6133 44.007 31.1934 42.971 31.1934C42.5439 31.1934 42.1404 31.2609 41.7705 31.3855C41.3786 31.5174 41.0174 31.7108 40.6984 31.9534C40.1807 32.346 39.4427 32.2448 39.05 31.7271C38.984 31.6401 38.9319 31.5468 38.8935 31.4499H38.893C38.1874 29.6734 36.9596 28.1606 35.3992 27.1015C33.8892 26.0765 32.0609 25.4776 30.0865 25.4776V25.4775Z" fill="white"/>
</svg>
