<?xml version="1.0" encoding="UTF-8"?>
<svg id="Layer_1" xmlns="http://www.w3.org/2000/svg" version="1.1" viewBox="0 0 792 612">
  <!-- Generator: Adobe Illustrator 29.1.0, SVG Export Plug-In . SVG Version: 2.1.0 Build 142)  -->
  <defs>
    <style>
      .st0 {
        fill: #303030;
      }

      .st1 {
        fill: none;
        stroke: #e7d4e7;
        stroke-linecap: round;
        stroke-linejoin: round;
        stroke-width: 4.9px;
      }

      .st2 {
        fill: #bda0cc;
      }
    </style>
  </defs>
  <path class="st2" d="M56.5,128.4s119.5,67.2,119.9-25.4c0,0,128.2,112.8,145.7,4,0,0,136.3,96,294.3,7.1,0,0-16.8,97,106.9,33.7,0,0-136.9,159.4,2.1,195.1,0,0-110.9,45.2-21.5,158.4,0,0-147.7-88.2-166.1,13,0,0-170.1-112.2-241.5,5,0,0-3.8-129.2-200.1-38.7,0,0,69.4-102.3-26.6-117.7,0,0,63-38.4-21.4-141.4-10.7.8,110.4,15.8,8.5-93.1Z"/>
  <g>
    <path class="st0" d="M151,203.8c.7,8,1.2,15.8,1.7,23.3.4,7.6.8,15,1.2,22.4.3,7.4.6,14.8.8,22.3.2,7.5.3,15.2.4,23.2.2,22.8-.2,44.6-1,65.5-.9,20.9-2.2,39.4-3.9,55.7,9.6,2,19.4,3.6,29.6,4.9,10.1,1.3,19.3,2.1,27.4,2.7,47.9,3.1,73-10.4,74.2-40.5.5-11.8-2.4-21.9-8.5-30.3-6.1-8.4-14.4-13.6-24.7-15.6,16.8-3,29.2-9.8,37-20.4,7.8-10.5,11.7-25.6,11.3-45-.6-27.3-9.3-47.2-25.5-59.3-16.2-12.1-40.8-16.9-73.6-14.8-6.4.4-13.5,1.1-21.3,2-7.8.9-16.1,2.2-24.8,3.8ZM194.6,348.9c2.4-.3,4.4-.4,6-.4,1.6,0,3.2,0,4.9.1,9.3.2,16.7,2.1,22.2,5.9,5.4,3.8,8.1,8.7,7.9,14.7-.2,5.5-2.7,9.6-7.6,12.3-4.9,2.7-11.9,3.9-21,3.5-2.9-.1-5.6-.4-7.9-.7-2.3-.4-4.2-.8-5.5-1.4.5-11.3.8-22.6,1-33.9ZM194.4,262.8c1.7-.6,4.3-1.1,7.7-1.5,3.4-.5,6.8-.7,10.1-.8,10.9-.3,19.2,1.3,24.9,4.8,5.7,3.5,8.7,11.2,8.7,15.4.1,6.9.2,15.5-8.8,21.4-5.8,3.8-14.2,5.5-24.7,5.5-2.2,0-4.7,0-7.4-.3-2.7-.2-6-.4-10-.8,0-14.6-.2-29.2-.5-43.7Z"/>
    <path class="st0" d="M283.1,425.7c17.4-75.2,30.3-152.3,38.4-230.6,21.3-1.3,42.6-2.6,63.9-3.9,17.5,79.4,30.3,160.6,37.9,243.1-14.6-.9-29.2-1.8-43.7-2.7-1.2-16.2-2.5-32.3-4.1-48.3-13.3-.5-26.6-1-39.9-1.5-2.7,15.6-5.5,31.1-8.5,46.6-14.7-.9-29.3-1.8-44-2.7ZM343.6,345c8.6.2,17.3.3,25.9.5-3.9-26-8.2-51.9-13.1-77.6-3.8,25.9-8,51.6-12.8,77.1Z"/>
    <path class="st0" d="M566.8,282.2c-8.3,50-18.4,99.3-30.1,148-10.2-.6-20.4-1.1-30.6-1.7-7.8-47.7-17.2-94.8-28.2-141.1.5,25,.7,50.3.6,75.7,0,25.5-.7,50.3-1.8,74.5-13.6-.8-27.3-1.7-40.9-2.5,1.6-20.7,2.8-41.2,3.6-61.7.8-20.4,1.2-41,1.2-61.8,0-20.7-.4-41.3-1.2-61.8-.8-20.4-2-41-3.6-61.7,18.5-1.1,36.9-2.2,55.4-3.3,12.1,47.9,22.5,96.5,31.2,145.7,10.7-49,19.8-98.8,27-149.2,22.9-1.4,45.7-2.8,68.6-4.1,2.2,44.7,3.3,89.6,3.2,134.5,0,45-1.2,89.8-3.4,134.5-19.2-1.2-38.5-2.4-57.7-3.5,4.1-53.4,6.3-107,6.5-160.6Z"/>
  </g>
  <g>
    <path class="st1" d="M138.8,401.4s11.4-122.8,0-212.3c-.9-1.2,122.2-27.4,141.7,38.1,21.4,72-34.5,97.3-44.3,97,0,0,43.9,11.4,30.7,58.8-13.2,47.4-128.1,18.4-128.1,18.4Z"/>
    <path class="st1" d="M271.3,411s42.1-183.4,37.7-230.8l64.1-1.8s29.8,123.7,37.7,241.3l-42.3-1.7-4.6-48.4-40.1-1.7-8.3,47.2-44.3-4.2Z"/>
    <polygon class="st1" points="331.8 330.8 345.4 254.6 358.2 331.6 331.8 330.8"/>
    <path class="st1" d="M424.4,175s11.3,166.6,0,245.8l41.5,4.5.8-150.8s19.6,67.9,28.7,141l30.9,1.5s29.4-128.9,29.4-149.3c0,0,1.5,86.7-6.8,161.4l57.3,3.8s6.8-188.5,0-269.2l-67.9,4.5-27.1,149.3s-17.3-102.5-31.7-148.5l-55,6Z"/>
    <path class="st1" d="M183.1,292l-.8-43.5s49.1-10.3,50.7,20.6-49.9,23-49.9,23Z"/>
    <path class="st1" d="M181.6,369.6l1.6-34.8s41.2-4,41.2,19-42.8,15.8-42.8,15.8Z"/>
  </g>
</svg>