<svg width="64" height="64" viewBox="0 0 64 64" fill="none" xmlns="http://www.w3.org/2000/svg">
<path d="M58.1473 26.871C56.8607 26.0233 55.3306 25.6233 53.7938 25.7331C53.0393 25.7376 52.2865 25.8038 51.5428 25.931C51.3414 24.7656 50.8984 23.6552 50.2424 22.6712C49.5864 21.6872 48.7318 20.8512 47.7335 20.2171L46.9667 19.7717L46.472 20.4891C45.8485 21.463 45.3889 22.5326 45.1115 23.6552C44.8477 24.6491 44.7906 25.6866 44.9437 26.7035C45.0969 27.7204 45.4571 28.695 46.002 29.5671C44.7797 30.1262 43.4613 30.4453 42.1185 30.507H6.99387C6.55434 30.507 6.13282 30.6817 5.82203 30.9924C5.51123 31.3032 5.33662 31.7248 5.33659 32.1643C5.2882 35.2425 5.80811 38.3032 6.87021 41.1928C7.83107 44.0382 9.71059 46.4833 12.2131 48.1436C15.8396 49.9782 19.8777 50.8471 23.9378 50.6667C26.1198 50.6666 28.2973 50.4679 30.4433 50.073C33.4342 49.5315 36.3115 48.486 38.9524 46.9811C41.1253 45.7205 43.0799 44.1166 44.7405 42.2317C47.202 39.3428 49.121 36.0327 50.405 32.4611H50.8997C51.9937 32.5061 53.0855 32.33 54.1098 31.9433C55.1341 31.5565 56.0698 30.967 56.861 30.2101C57.5499 29.5581 58.0899 28.765 58.4441 27.885L58.6667 27.242L58.1473 26.871Z" fill="#6563FF"/>
<path d="M10.2589 29.493H14.9587C15.014 29.4935 15.0689 29.4829 15.1201 29.462C15.1714 29.441 15.2179 29.41 15.2571 29.3709C15.2962 29.3317 15.3272 29.2852 15.3481 29.234C15.3691 29.1827 15.3796 29.1278 15.3792 29.0725V24.8674C15.3796 24.8121 15.3691 24.7572 15.3481 24.7059C15.3272 24.6547 15.2962 24.6081 15.2571 24.569C15.2179 24.5299 15.1714 24.4989 15.1201 24.4779C15.0689 24.457 15.014 24.4464 14.9587 24.4469H10.2589C10.2035 24.4464 10.1486 24.457 10.0974 24.4779C10.0462 24.4989 9.99963 24.5299 9.96049 24.569C9.92134 24.6081 9.89039 24.6547 9.86943 24.7059C9.84846 24.7572 9.83791 24.8121 9.83839 24.8674V29.0725C9.84152 29.183 9.88682 29.2882 9.96502 29.3664C10.0432 29.4446 10.1484 29.4899 10.2589 29.493ZM16.7396 29.493H21.4394C21.4948 29.4935 21.5497 29.4829 21.6009 29.462C21.6521 29.441 21.6987 29.41 21.7378 29.3709C21.777 29.3317 21.8079 29.2852 21.8289 29.234C21.8498 29.1827 21.8604 29.1278 21.8599 29.0725V24.8674C21.8604 24.8121 21.8498 24.7572 21.8289 24.7059C21.8079 24.6547 21.777 24.6081 21.7378 24.569C21.6987 24.5299 21.6521 24.4989 21.6009 24.4779C21.5497 24.457 21.4948 24.4464 21.4394 24.4469H16.7396C16.6843 24.4464 16.6294 24.457 16.5782 24.4779C16.5269 24.4989 16.4804 24.5299 16.4412 24.569C16.4021 24.6081 16.3711 24.6547 16.3502 24.7059C16.3292 24.7572 16.3187 24.8121 16.3191 24.8674V29.0725C16.3223 29.183 16.3676 29.2882 16.4458 29.3664C16.524 29.4446 16.6291 29.4899 16.7396 29.493ZM23.344 29.493H28.0438C28.0992 29.4935 28.1541 29.4829 28.2053 29.462C28.2566 29.441 28.3031 29.41 28.3422 29.3709C28.3814 29.3317 28.4123 29.2852 28.4333 29.234C28.4543 29.1827 28.4648 29.1278 28.4643 29.0725V24.8674C28.4648 24.8121 28.4543 24.7572 28.4333 24.7059C28.4123 24.6547 28.3814 24.6081 28.3422 24.569C28.3031 24.5299 28.2566 24.4989 28.2053 24.4779C28.1541 24.457 28.0992 24.4464 28.0438 24.4469H23.3439C23.2886 24.4464 23.2337 24.457 23.1825 24.4779C23.1312 24.4989 23.0847 24.5299 23.0455 24.569C23.0064 24.6081 22.9754 24.6547 22.9545 24.7059C22.9335 24.7572 22.923 24.8121 22.9234 24.8674V29.0725C22.9209 29.1284 22.93 29.1842 22.9503 29.2363C22.9705 29.2885 23.0014 29.3359 23.0409 29.3755C23.0805 29.415 23.1279 29.4459 23.1801 29.4662C23.2322 29.4864 23.2881 29.4955 23.344 29.493ZM29.8495 29.493H34.5493C34.6046 29.4935 34.6595 29.4829 34.7108 29.462C34.762 29.441 34.8085 29.41 34.8477 29.3709C34.8868 29.3317 34.9178 29.2852 34.9387 29.234C34.9597 29.1827 34.9703 29.1278 34.9698 29.0725V24.8674C34.9703 24.8121 34.9597 24.7572 34.9387 24.7059C34.9178 24.6547 34.8868 24.6081 34.8477 24.569C34.8085 24.5299 34.762 24.4989 34.7108 24.4779C34.6595 24.457 34.6046 24.4464 34.5493 24.4469H29.8495C29.7942 24.4464 29.7393 24.457 29.6881 24.4779C29.6368 24.4989 29.5903 24.5299 29.5511 24.569C29.512 24.6081 29.481 24.6547 29.4601 24.7059C29.4391 24.7572 29.4286 24.8121 29.429 24.8674V29.0725C29.4286 29.1278 29.4391 29.1827 29.4601 29.234C29.481 29.2852 29.512 29.3317 29.5511 29.3709C29.5903 29.41 29.6368 29.441 29.6881 29.462C29.7393 29.4829 29.7942 29.4935 29.8495 29.493ZM16.7396 23.4823H21.4394C21.5499 23.4791 21.655 23.4337 21.7331 23.3556C21.8113 23.2774 21.8567 23.1723 21.8599 23.0618V18.8567C21.8604 18.8013 21.8498 18.7464 21.8289 18.6952C21.8079 18.6439 21.777 18.5974 21.7378 18.5582C21.6987 18.5191 21.6521 18.4881 21.6009 18.4672C21.5497 18.4462 21.4948 18.4357 21.4394 18.4361H16.7396C16.6843 18.4357 16.6294 18.4462 16.5782 18.4672C16.5269 18.4881 16.4804 18.5191 16.4412 18.5582C16.4021 18.5974 16.3711 18.6439 16.3502 18.6952C16.3292 18.7464 16.3187 18.8013 16.3191 18.8567V23.0617C16.3265 23.1708 16.3732 23.2735 16.4505 23.3509C16.5278 23.4282 16.6306 23.4749 16.7396 23.4823ZM23.344 23.4822H28.0438C28.1543 23.479 28.2594 23.4336 28.3376 23.3555C28.4157 23.2773 28.4611 23.1722 28.4643 23.0617V18.8567C28.4648 18.8013 28.4543 18.7464 28.4333 18.6952C28.4123 18.6439 28.3814 18.5974 28.3422 18.5582C28.3031 18.5191 28.2566 18.4881 28.2053 18.4672C28.1541 18.4462 28.0992 18.4357 28.0438 18.4361H23.3439C23.2886 18.4357 23.2337 18.4462 23.1825 18.4672C23.1312 18.4881 23.0847 18.5191 23.0455 18.5582C23.0064 18.5974 22.9754 18.6439 22.9545 18.6952C22.9335 18.7464 22.923 18.8013 22.9234 18.8567V23.0617C22.923 23.1171 22.9335 23.172 22.9545 23.2232C22.9754 23.2744 23.0064 23.321 23.0455 23.3601C23.0847 23.3993 23.1312 23.4302 23.1825 23.4512C23.2337 23.4721 23.2887 23.4827 23.344 23.4822ZM29.8494 23.4822H34.5493C34.6598 23.479 34.7648 23.4336 34.843 23.3555C34.9212 23.2773 34.9665 23.1722 34.9698 23.0617V18.8567C34.9665 18.7462 34.9212 18.6411 34.843 18.5629C34.7648 18.4847 34.6598 18.4394 34.5493 18.4361H29.8495C29.7942 18.4357 29.7393 18.4462 29.6881 18.4672C29.6368 18.4881 29.5903 18.5191 29.5511 18.5582C29.512 18.5974 29.481 18.6439 29.4601 18.6952C29.4391 18.7464 29.4286 18.8013 29.429 18.8567V23.0617C29.4323 23.1722 29.4776 23.2773 29.5558 23.3555C29.634 23.4336 29.7389 23.479 29.8494 23.4822ZM29.8495 17.4467H34.5493C34.6046 17.4472 34.6595 17.4367 34.7108 17.4157C34.762 17.3947 34.8085 17.3638 34.8477 17.3246C34.8868 17.2855 34.9178 17.2389 34.9387 17.1877C34.9597 17.1365 34.9703 17.0816 34.9698 17.0262V12.8212C34.9665 12.7107 34.9212 12.6056 34.843 12.5274C34.7648 12.4493 34.6598 12.4039 34.5493 12.4007H29.8495C29.7942 12.4002 29.7393 12.4107 29.6881 12.4317C29.6368 12.4526 29.5903 12.4836 29.5511 12.5227C29.512 12.5619 29.481 12.6084 29.4601 12.6597C29.4391 12.7109 29.4286 12.7658 29.429 12.8212V17.0262C29.4323 17.1367 29.4776 17.2418 29.5558 17.3199C29.634 17.3981 29.739 17.4435 29.8495 17.4467ZM36.4045 29.493H41.1043C41.1596 29.4935 41.2145 29.4829 41.2657 29.462C41.317 29.441 41.3635 29.41 41.4027 29.3709C41.4418 29.3318 41.4728 29.2852 41.4937 29.234C41.5147 29.1827 41.5252 29.1278 41.5248 29.0725V24.8674C41.5252 24.8121 41.5147 24.7572 41.4937 24.7059C41.4728 24.6547 41.4418 24.6082 41.4027 24.569C41.3635 24.5299 41.317 24.4989 41.2657 24.4779C41.2145 24.457 41.1596 24.4464 41.1043 24.4469H36.4045C36.3491 24.4464 36.2942 24.457 36.243 24.4779C36.1918 24.4989 36.1452 24.5299 36.1061 24.569C36.0669 24.6082 36.036 24.6547 36.015 24.7059C35.9941 24.7572 35.9835 24.8121 35.984 24.8674V29.0725C35.9871 29.183 36.0324 29.2882 36.1106 29.3664C36.1888 29.4446 36.294 29.4899 36.4045 29.493Z" fill="#D8D8FF"/>
</svg>
