<svg width="64" height="64" viewBox="0 0 64 64" fill="none" xmlns="http://www.w3.org/2000/svg">
<g clip-path="url(#clip0_133_1438)">
<path d="M21.3334 64.0001C27.2214 64.0001 32.0001 59.2214 32.0001 53.3334V42.6667H21.3334C15.4454 42.6667 10.6667 47.4454 10.6667 53.3334C10.6667 59.2214 15.4454 64.0001 21.3334 64.0001Z" fill="#0ACF83"/>
<path d="M10.6667 31.9999C10.6667 26.1119 15.4454 21.3333 21.3334 21.3333H32.0001V42.6666H21.3334C15.4454 42.6666 10.6667 37.8879 10.6667 31.9999Z" fill="#A259FF"/>
<path d="M10.6667 10.6667C10.6667 4.77867 15.4454 0 21.3334 0H32.0001V21.3333H21.3334C15.4454 21.3333 10.6667 16.5547 10.6667 10.6667Z" fill="#F24E1E"/>
<path d="M32 0H42.6667C48.5547 0 53.3333 4.77867 53.3333 10.6667C53.3333 16.5547 48.5547 21.3333 42.6667 21.3333H32V0Z" fill="#FF7262"/>
<path d="M53.3333 31.9999C53.3333 37.8879 48.5547 42.6666 42.6667 42.6666C36.7787 42.6666 32 37.8879 32 31.9999C32 26.1119 36.7787 21.3333 42.6667 21.3333C48.5547 21.3333 53.3333 26.1119 53.3333 31.9999Z" fill="#1ABCFE"/>
</g>
<defs>
<clipPath id="clip0_133_1438">
<rect width="64" height="64" fill="white"/>
</clipPath>
</defs>
</svg>
