<svg width="65" height="65" viewBox="0 0 65 65" fill="none" xmlns="http://www.w3.org/2000/svg">
<path d="M35.9775 28.7105H36.023V28.639L35.9775 28.7105ZM35.9775 28.7105H36.023V28.639L35.9775 28.7105ZM35.9775 28.7105H36.023V28.639L35.9775 28.7105ZM35.9775 28.7105H36.023V28.639L35.9775 28.7105ZM35.9775 28.7105H36.023V28.639L35.9775 28.7105ZM35.9775 28.7105H36.023V28.639L35.9775 28.7105ZM35.9775 28.7105H36.023V28.639L35.9775 28.7105ZM35.9775 28.7105H36.023V28.639L35.9775 28.7105ZM35.9775 28.7105H36.023V28.639L35.9775 28.7105ZM35.9775 28.7105H36.023V28.639L35.9775 28.7105ZM35.9775 28.7105H36.023V28.639L35.9775 28.7105ZM35.9775 28.7105H36.023V28.639L35.9775 28.7105ZM35.9775 28.7105H36.023V28.639L35.9775 28.7105ZM35.9775 28.7105H36.023V28.639L35.9775 28.7105ZM35.9775 28.7105H36.023V28.639L35.9775 28.7105ZM35.9775 28.7105H36.023V28.639L35.9775 28.7105ZM33.02 2.4505C27.1488 2.4505 21.4094 4.19152 16.5276 7.45341C11.6459 10.7153 7.84099 15.3515 5.59416 20.7759C3.34733 26.2002 2.75946 32.1689 3.90488 37.9274C5.05031 43.6858 7.87758 48.9752 12.0292 53.1268C16.1808 57.2784 21.4702 60.1057 27.2286 61.2511C32.9871 62.3965 38.9558 61.8087 44.3801 59.5618C49.8045 57.315 54.4407 53.5101 57.7026 48.6284C60.9645 43.7466 62.7055 38.0072 62.7055 32.136C62.6969 24.2656 59.5666 16.7199 54.0013 11.1547C48.4361 5.58944 40.8904 2.4591 33.02 2.4505ZM25.597 45.5C25.5953 45.6316 25.5418 45.7573 25.4481 45.8497C25.3544 45.9422 25.2281 45.994 25.0965 45.994H19.3765C19.2455 45.994 19.1198 45.942 19.0272 45.8493C18.9345 45.7567 18.8825 45.631 18.8825 45.5V26.2795C18.8816 26.2141 18.8938 26.1491 18.9182 26.0885C18.9426 26.0278 18.9789 25.9725 19.0249 25.926C19.0708 25.8794 19.1256 25.8424 19.1859 25.8172C19.2463 25.792 19.3111 25.779 19.3765 25.779H25.0965C25.1622 25.779 25.2273 25.7919 25.288 25.8171C25.3487 25.8423 25.4039 25.8791 25.4504 25.9256C25.4969 25.9721 25.5337 26.0272 25.5589 26.088C25.584 26.1487 25.597 26.2138 25.597 26.2795V45.5ZM22.035 23.2115C21.3241 23.2115 20.6291 23.0007 20.038 22.6057C19.4469 22.2108 18.9862 21.6494 18.7141 20.9926C18.442 20.3357 18.3709 19.613 18.5096 18.9157C18.6482 18.2185 18.9906 17.578 19.4933 17.0753C19.996 16.5726 20.6365 16.2303 21.3337 16.0916C22.031 15.9529 22.7537 16.0241 23.4105 16.2961C24.0674 16.5682 24.6287 17.0289 25.0237 17.62C25.4187 18.2111 25.6295 18.9061 25.6295 19.617C25.6303 20.0893 25.538 20.5571 25.3576 20.9936C25.1773 21.4301 24.9125 21.8267 24.5786 22.1606C24.2446 22.4946 23.848 22.7593 23.4116 22.9396C22.9751 23.12 22.5073 23.2124 22.035 23.2115ZM49.803 45.5C49.8013 45.6316 49.7478 45.7573 49.6541 45.8497C49.5604 45.9422 49.4341 45.994 49.3025 45.994H43.5825C43.5176 45.994 43.4534 45.9812 43.3934 45.9564C43.3335 45.9316 43.279 45.8952 43.2332 45.8493C43.1873 45.8034 43.1509 45.749 43.1261 45.6891C43.1013 45.6291 43.0885 45.5649 43.0885 45.5V35.1715C43.0885 32.4545 42.12 30.6215 39.689 30.6215C38.9315 30.6257 38.1938 30.8641 37.5771 31.304C36.9603 31.7438 36.4947 32.3637 36.244 33.0785C36.0726 33.6068 35.9978 34.1617 36.023 34.7165V45.5C36.023 45.6327 35.9703 45.76 35.8764 45.8539C35.7825 45.9478 35.6552 46.0005 35.5225 46.0005H29.8025C29.7371 46.0005 29.6723 45.9875 29.6119 45.9623C29.5516 45.9371 29.4968 45.9001 29.4509 45.8535C29.4049 45.807 29.3686 45.7517 29.3442 45.6911C29.3198 45.6304 29.3076 45.5654 29.3085 45.5C29.3085 42.757 29.38 29.4385 29.3085 26.3055C29.3076 26.2401 29.3198 26.1751 29.3442 26.1145C29.3686 26.0538 29.4049 25.9985 29.4509 25.952C29.4968 25.9054 29.5516 25.8684 29.6119 25.8432C29.6723 25.818 29.7371 25.805 29.8025 25.805H35.5095C35.5755 25.8041 35.6409 25.8165 35.7021 25.8413C35.7632 25.8662 35.8187 25.903 35.8653 25.9496C35.912 25.9963 35.9488 26.0518 35.9737 26.1129C35.9985 26.1741 36.0109 26.2395 36.01 26.3055V28.665C36.618 27.6096 37.5034 26.7408 38.5702 26.153C39.637 25.5651 40.8445 25.2807 42.0615 25.3305C46.475 25.3305 49.79 28.2165 49.79 34.4305L49.803 45.5ZM36.023 28.73V28.6585L35.9775 28.73H36.023ZM35.9775 28.73H36.023V28.6585L35.9775 28.73ZM35.9775 28.73H36.023V28.6585L35.9775 28.73ZM35.9775 28.73H36.023V28.6585L35.9775 28.73ZM35.9775 28.73H36.023V28.6585L35.9775 28.73ZM35.9775 28.73H36.023V28.6585L35.9775 28.73ZM35.9775 28.73H36.023V28.6585L35.9775 28.73ZM35.9775 28.73H36.023V28.6585L35.9775 28.73ZM35.9775 28.73H36.023V28.6585L35.9775 28.73ZM35.9775 28.73H36.023V28.6585L35.9775 28.73ZM35.9775 28.73H36.023V28.6585L35.9775 28.73ZM35.9775 28.73H36.023V28.6585L35.9775 28.73ZM35.9775 28.73H36.023V28.6585L35.9775 28.73ZM35.9775 28.73H36.023V28.6585L35.9775 28.73ZM35.9775 28.73H36.023V28.6585L35.9775 28.73Z" fill="#CF9FFF"/>
</svg>
