<svg width="64" height="64" viewBox="0 0 64 64" fill="none" xmlns="http://www.w3.org/2000/svg">
<path d="M58.5412 39.7841C58.5442 39.7841 58.5466 39.7817 58.5466 39.7788C58.5466 39.7758 58.5442 39.7734 58.5412 39.7734C58.5383 39.7734 58.5359 39.7758 58.5359 39.7788C58.5359 39.7817 58.5383 39.7841 58.5412 39.7841Z" fill="black"/>
<path d="M50.6428 39.272L50.6481 39.2774L50.6401 39.2827C50.2535 39.424 49.9335 39.4827 49.6641 39.6027C49.3934 39.7086 49.1706 39.9096 49.0375 40.168L49.0348 40.1734C48.8695 40.48 48.7255 41.024 48.7681 41.9494C48.8775 42.0294 49.0108 42.0907 49.1468 42.1334L49.1575 42.136C49.6081 42.2747 50.3628 42.3654 51.2055 42.352C52.8855 42.3334 54.9548 41.936 56.0535 41.4187C57.0001 40.968 57.8108 40.424 58.5335 39.7787C54.8641 40.5467 52.7921 40.3414 51.5201 39.8107C51.203 39.6749 50.9074 39.4934 50.6428 39.272ZM46.8801 11.0694L46.8961 11.0934L46.9148 11.1147L46.8801 11.0694ZM32.8455 51.464L32.8428 51.2614L32.8401 51.1894L32.8455 51.464ZM30.0321 39.696C29.8651 39.6143 29.6858 39.5602 29.5015 39.536H29.4935V39.5307H29.4375C29.2988 39.544 29.0961 39.592 28.7015 40.032C27.7841 41.072 27.4641 41.7254 26.7068 42.336C25.9495 42.944 24.9681 43.2694 23.0055 43.6774C22.5862 43.7528 22.1784 43.8819 21.7921 44.0614C21.8695 44.1254 21.8615 44.1414 21.9761 44.2027C22.2641 44.3627 22.6321 44.504 22.9308 44.5814C23.7735 44.7947 25.1601 45.0427 26.6055 44.7947C28.0508 44.544 29.5548 43.8427 30.8375 42.0214C31.0588 41.7067 31.0828 41.2427 30.9015 40.744C30.7201 40.2454 30.3148 39.816 30.0321 39.696ZM40.8001 4.00537L40.6481 4.0347L40.8055 4.00804L40.8001 4.00537ZM48.2188 18.4C46.4295 18.424 45.4268 18.8907 44.8988 19.5014C44.1521 20.368 44.0828 21.888 44.5468 23.76C45.0081 25.6347 45.9601 27.7307 46.8561 29.472C47.3041 30.344 47.7388 31.128 48.0881 31.7654C48.4401 32.4054 48.6988 32.8587 48.8561 33.2454C49.0001 33.6027 49.1628 33.9174 49.3255 34.2107C50.0188 32.7307 50.1415 31.2774 50.0721 29.7627C49.9815 27.888 49.5495 25.9707 49.6135 24.0294C49.6855 21.76 50.1281 20.2827 50.1655 18.528C49.5201 18.4422 48.8698 18.3995 48.2188 18.4ZM48.5495 19.7494L48.5468 19.7707V19.7974C48.5468 19.92 48.5121 20.0374 48.4508 20.1334L48.4535 20.1307C48.3755 20.2768 48.2777 20.4114 48.1628 20.5307C47.9003 20.8257 47.5462 21.0239 47.1575 21.0934L47.1468 21.096C46.763 21.1435 46.3754 21.0445 46.0615 20.8187L46.0668 20.8214C45.9393 20.7345 45.8252 20.6293 45.7281 20.5094L45.7255 20.5067C45.641 20.4127 45.5838 20.2975 45.5601 20.1734V20.168L45.5575 20.128C45.5575 20.0134 45.6001 19.9067 45.6721 19.8267C45.7567 19.7282 45.86 19.6475 45.9761 19.5894L45.9815 19.5867C46.2348 19.4427 46.5761 19.336 46.9628 19.2774C47.1024 19.257 47.2431 19.2454 47.3841 19.2427V19.2507H47.5148C47.6746 19.2538 47.8337 19.2734 47.9895 19.3094C48.1184 19.3355 48.2413 19.3852 48.3521 19.456C48.4028 19.4894 48.4463 19.5326 48.4802 19.5829C48.5141 19.6333 48.5376 19.6899 48.5495 19.7494ZM18.8721 30.152C18.8721 29.672 18.9095 29.2027 18.9788 28.7414L18.9735 28.792C19.2455 26.8214 19.2828 24.9787 19.2508 23.5227C19.2188 22.104 19.1175 21.16 19.1175 20.5707V20.5067L19.1148 20.4907V20.4747C19.1148 17.3174 19.6695 14.2907 20.6748 11.4827C21.4135 9.49871 22.5121 7.48537 24.1575 5.85337C22.5388 5.3147 19.6695 4.49337 16.5601 4.3387C16.228 4.32113 15.8954 4.31224 15.5628 4.31204L15.5601 4.3147C15.2268 4.3147 14.8908 4.32537 14.5601 4.34404C11.8988 4.4987 9.38145 5.28004 7.58412 7.2107C5.78145 9.14137 4.59479 12.3067 4.85345 17.5467C4.90412 18.5387 5.33079 21.3174 6.06145 24.6187C6.79479 27.92 7.82679 31.8054 9.06945 35.2374C10.3148 38.6694 11.8241 41.656 13.2588 43.0694C13.9815 43.776 14.6081 44.0614 15.1761 44.0374C15.7468 44.0107 16.4348 43.6774 17.2748 42.656C18.8228 40.7661 20.4307 38.926 22.0961 37.1387L22.0428 37.1947C21.0438 36.3139 20.2442 35.23 19.6974 34.0155C19.1506 32.8011 18.8693 31.4839 18.8721 30.152Z" fill="#32648D"/>
<path d="M33.056 4.18136V4.17603C29.9414 4.18403 27.7094 5.13603 26.0134 6.56269C24.2667 8.03736 23.096 10.056 22.3254 12.1227C21.4107 14.576 21.0987 16.9494 20.9734 18.56L21.008 18.5387C21.9494 18.0054 23.184 17.472 24.5067 17.1627C25.8294 16.8534 27.2534 16.76 28.544 17.2667C29.8347 17.7734 30.9014 18.9654 31.288 20.7734C33.1414 29.4587 30.712 32.688 29.816 35.1254C29.4904 35.9493 29.2135 36.7916 28.9867 37.648L28.944 37.8267C29.056 37.8 29.1707 37.768 29.2827 37.7574C29.9147 37.704 30.4107 37.9174 30.704 38.0454C31.6054 38.424 32.224 39.2187 32.5574 40.1254C32.6454 40.3627 32.7067 40.6187 32.744 40.8827C32.7787 40.9734 32.7974 41.08 32.7974 41.1894V41.2214C32.6927 44.5674 32.7052 47.9161 32.8347 51.2614C32.896 52.664 32.984 53.9067 33.0934 54.8854C33.208 55.8827 33.368 56.6374 33.4694 56.8934C33.8054 57.7467 34.2987 58.864 35.1894 59.624C36.08 60.3814 37.3574 60.888 39.6907 60.3814C41.7147 59.9414 42.9627 59.3307 43.7974 58.4534C44.632 57.576 45.128 56.3547 45.4454 54.4854C45.9227 51.6854 46.88 43.5654 46.9974 42.0374C46.944 40.8854 47.112 40 47.4774 39.3254C47.8507 38.632 48.432 38.208 48.9307 37.9787C49.1814 37.864 49.416 37.7867 49.608 37.7307C49.3969 37.4246 49.1755 37.1257 48.944 36.8347L48.968 36.864C48.2617 35.9987 47.6808 35.0382 47.2427 34.0107L47.2134 33.9334C46.9863 33.4604 46.7416 32.9961 46.48 32.5414L46.536 32.6454C46.1867 32.0054 45.744 31.2054 45.28 30.3067C44.352 28.5067 43.344 26.3254 42.8187 24.2C42.296 22.0774 42.2214 19.88 43.56 18.3307C44.744 16.9547 46.8267 16.384 49.9494 16.704C49.8587 16.424 49.8027 16.192 49.6454 15.8187C48.9355 14.1299 48.0076 12.5413 46.8854 11.0934C44.2374 7.67469 39.9574 4.29069 33.3494 4.18136H33.056ZM20.936 20.72L20.9414 20.7174L20.9494 20.7094L20.936 20.72Z" fill="#32648D"/>
<path d="M24.8561 18.9146L24.8828 18.9119L24.9041 18.9039L24.8561 18.9146ZM28.1601 34.4986C29.2294 31.5812 31.3334 29.4532 29.5628 21.1492C29.2721 19.7892 28.6988 19.2399 27.9094 18.9306C27.4938 18.7809 27.0552 18.7051 26.6134 18.7066H26.5228H26.5281C25.9736 18.7119 25.4216 18.7808 24.8828 18.9119C23.8263 19.1745 22.8094 19.5762 21.8588 20.1066C21.5148 20.2959 21.2188 20.4932 20.9414 20.7146L20.8908 20.7626C20.9068 21.1519 20.9814 22.0959 21.0134 23.4852C21.0614 25.3426 20.9624 27.2008 20.7174 29.0426C20.0881 33.6026 23.3574 37.3786 27.1974 37.3839C27.4241 36.4479 27.7921 35.4986 28.1601 34.4986ZM25.8908 21.2479C25.7672 21.1207 25.663 20.976 25.5814 20.8186L25.5761 20.8079C25.4895 20.6657 25.4529 20.4986 25.4721 20.3332C25.5121 20.0452 25.7468 19.8986 25.9734 19.8159C26.2356 19.7303 26.5114 19.6941 26.7868 19.7092L26.7841 19.6986C26.9228 19.6986 27.0721 19.7119 27.2214 19.7332C27.6241 19.7892 27.9841 19.8986 28.2561 20.0586C28.3882 20.1293 28.5058 20.2243 28.6028 20.3386L28.6054 20.3412C28.6961 20.4452 28.7494 20.5812 28.7494 20.7332L28.7468 20.7972C28.7209 20.9499 28.6525 21.0896 28.5494 21.2052C28.4426 21.3367 28.3178 21.4525 28.1788 21.5492L28.1734 21.5519C27.8314 21.8013 27.4064 21.9092 26.9868 21.8532H26.9948C26.5688 21.7823 26.1796 21.5689 25.8908 21.2479Z" fill="#32648D"/>
<path d="M21.8054 20.1334L21.8588 20.1067L21.8668 20.1014L21.8054 20.1334ZM48.3068 10.0054C49.4921 11.5302 50.4754 13.2018 51.2321 14.9787L51.2881 15.1254C51.5788 15.8294 51.7734 16.4241 51.8827 16.8854C51.9387 17.1174 51.9761 17.3121 51.9894 17.5147C52 17.6436 51.9892 17.7734 51.9574 17.8987C51.9574 17.9067 51.9441 17.9254 51.9414 17.9334C52.0214 20.2694 51.4481 21.8534 51.3814 24.0827C51.3281 25.6987 51.7361 27.5974 51.8374 29.6694C51.9334 31.6161 51.7014 33.7547 50.4508 35.8534C50.5574 35.9814 50.6508 36.1094 50.7521 36.2374C54.0561 30.9707 56.4374 25.1441 57.7067 20.1761C58.3867 17.5014 58.7467 15.0774 58.7788 13.1574C58.8054 11.2374 58.4507 9.84539 58.0028 9.26406C54.4668 4.68806 49.6854 3.52272 45.6748 3.49072L45.2908 3.49339C43.7832 3.51648 42.2816 3.68888 40.8081 4.00806C44.0828 5.48006 46.5628 7.74672 48.3068 10.0054Z" fill="#32648D"/>
<path d="M33.4961 0.688H33.4694C30.3654 0.634667 27.7014 1.39733 25.5494 2.66667C23.4321 1.92267 19.0401 0.64 14.4081 0.896C11.1841 1.07467 7.66407 2.06667 5.05607 4.85333C2.45607 7.64 1.08274 11.952 1.37074 17.8187C1.45074 19.4373 1.90674 22.0773 2.66141 25.496C3.41874 28.9147 4.48007 32.9173 5.80541 36.568C7.13074 40.2213 8.58141 43.5013 10.8507 45.7307C11.9841 46.848 13.5441 47.7867 15.3814 47.7093C16.6721 47.656 17.8374 47.0827 18.8454 46.2373C19.3361 46.8907 19.8587 47.176 20.3361 47.44C20.9361 47.7733 21.5201 48 22.1254 48.1493C23.2134 48.424 25.0747 48.792 27.2561 48.416C28.0514 48.2742 28.8255 48.0322 29.5601 47.696C29.5894 48.576 29.6241 49.4373 29.6561 50.3093C29.7654 53.072 29.8321 55.624 30.6507 57.8613C30.7814 58.2267 31.1441 60.1093 32.5654 61.7707C33.9867 63.4347 36.7761 64.472 39.9494 63.784C42.1894 63.2987 45.0347 62.424 46.9281 59.6987C48.7974 57.0053 49.6401 53.1413 49.8081 46.8747C49.8507 46.536 49.9014 46.248 49.9521 45.9787L50.3974 46.0187H50.4507C52.8401 46.128 55.4321 45.784 57.5974 44.7653C59.5147 43.8667 60.9654 42.9573 62.0241 41.344C62.2881 40.944 62.5761 40.4613 62.6561 39.6293C62.7361 38.7973 62.2641 37.496 61.4801 36.896C59.9121 35.6907 58.9281 36.1493 57.8721 36.3707C56.8398 36.6054 55.7865 36.7358 54.7281 36.76H54.7067C57.7521 31.568 59.9361 26.0533 61.1814 21.1733C61.9201 18.2933 62.3334 15.6373 62.3654 13.3147C62.4001 10.992 62.2134 8.936 60.8374 7.15733C56.5414 1.6 50.5014 0.064 45.8267 0.0106667C45.6827 0.008 45.5361 0.00533333 45.3921 0.008V0C42.9167 0.020421 40.4563 0.387545 38.0827 1.09067L37.9734 1.128C36.4954 0.859856 34.998 0.712701 33.4961 0.688ZM39.8134 2.38667C41.5958 1.95941 43.4207 1.73488 45.2534 1.71733H45.2694L45.2721 1.70667C49.6934 1.664 55.3387 2.92 59.3947 8.16533C60.3067 9.344 60.5787 11.0667 60.5467 13.1893C60.5121 15.3093 60.1254 17.848 59.4161 20.6293C58.0401 26.016 55.4427 32.296 51.7841 37.9307C51.9087 38.0214 52.0439 38.0966 52.1867 38.1547L52.2001 38.16C52.9627 38.48 54.7041 38.7547 58.1787 38.032C59.0534 37.8453 59.6934 37.72 60.3574 38.232C60.5102 38.3627 60.6328 38.5251 60.7166 38.7079C60.8004 38.8907 60.8435 39.0896 60.8427 39.2907L60.8401 39.3707V39.368C60.8044 39.6913 60.6859 39.9999 60.4961 40.264C59.8241 41.2853 58.4987 42.2533 56.8027 43.0507C55.2987 43.76 53.1414 44.1307 51.2294 44.152C50.2694 44.1627 49.3867 44.088 48.6347 43.8507L48.5867 43.832C48.2961 46.6587 47.6294 52.24 47.1947 54.7867C46.8481 56.84 46.2401 58.472 45.0774 59.6933C43.9174 60.9147 42.2774 61.6507 40.0694 62.1307C37.3361 62.7253 35.3414 62.0853 34.0561 60.9893C32.7734 59.896 32.1867 58.4453 31.8321 57.5573C31.5894 56.944 31.4641 56.1493 31.3414 55.088C31.2187 54.0267 31.1307 52.728 31.0694 51.264C31.0074 49.5998 30.9771 47.9346 30.9787 46.2693C30.9787 45.6907 30.9841 45.1147 30.9894 44.536C29.8652 45.5838 28.4623 46.2848 26.9494 46.5547L26.9014 46.5627C25.0854 46.8747 23.4667 46.568 22.4987 46.3227C22.0162 46.2007 21.5512 46.0179 21.1147 45.7787C20.6721 45.5387 20.2507 45.264 19.9681 44.728C19.8007 44.4163 19.7488 44.0556 19.8214 43.7093C19.9109 43.3632 20.1113 43.056 20.3921 42.8347L20.3947 42.832C20.9174 42.4027 21.6054 42.1627 22.6481 41.944C24.5414 41.5493 25.2027 41.28 25.6054 40.9573C25.9467 40.68 26.3361 40.12 27.0187 39.2987L27.0107 39.1973V39.1893C25.7678 39.1561 24.5515 38.8211 23.4667 38.2133L23.5067 38.2347C23.1121 38.656 21.0934 40.816 18.6347 43.8133C17.6001 45.0667 16.4561 45.7867 15.2507 45.8373C14.0454 45.888 12.9547 45.2747 12.0267 44.3653C10.1734 42.544 8.69607 39.4107 7.40807 35.8693C6.12274 32.328 5.07741 28.384 4.33341 25.024C3.58674 21.664 3.14941 18.9547 3.08541 17.648C2.80807 12.096 4.09074 8.35467 6.29074 5.99467C8.49341 3.63467 11.5121 2.74133 14.4534 2.57067C19.7361 2.264 24.7494 4.128 25.7654 4.528C27.7227 3.184 30.2427 2.34667 33.3867 2.4C34.9265 2.42147 36.4582 2.62648 37.9494 3.01067L37.8161 2.98133L37.8694 2.95733C38.3787 2.76533 39.0294 2.57067 39.6961 2.41067L39.8134 2.38667Z" fill="black"/>
</svg>
