<svg width="65" height="65" viewBox="0 0 65 65" fill="none" xmlns="http://www.w3.org/2000/svg">
<path d="M32.5 6.08484C26.069 6.08511 19.848 8.37369 14.9499 12.5411C10.0519 16.7085 6.7966 22.4828 5.76644 28.8307C4.73627 35.1787 5.9985 41.6861 9.32726 47.1885C12.656 52.691 17.8341 56.8295 23.935 58.8635C25.2891 59.1005 25.797 58.288 25.797 57.577C25.797 56.9338 25.7631 54.801 25.7631 52.5328C18.9584 53.7853 17.1979 50.874 16.6563 49.3505C16.0552 47.8689 15.1024 46.5559 13.8802 45.5249C12.9323 45.0171 11.5782 43.7645 13.8464 43.7307C14.7125 43.8247 15.5431 44.1261 16.268 44.6093C16.9929 45.0925 17.5906 45.7434 18.0104 46.5067C18.3809 47.1721 18.879 47.7579 19.4762 48.2305C20.0734 48.7031 20.758 49.0533 21.4907 49.2608C22.2235 49.4684 22.99 49.5293 23.7464 49.4401C24.5027 49.3509 25.234 49.1134 25.8984 48.7411C26.0157 47.3642 26.6293 46.0769 27.625 45.1188C21.599 44.4417 15.3021 42.1056 15.3021 31.7464C15.2641 29.0547 16.2573 26.4504 18.0782 24.4677C17.2502 22.1283 17.3471 19.561 18.349 17.2906C18.349 17.2906 20.6171 16.5797 25.7969 20.0667C30.2285 18.8479 34.907 18.8479 39.3386 20.0667C44.5182 16.5459 46.7865 17.2906 46.7865 17.2906C47.7886 19.561 47.8854 22.1283 47.0573 24.4677C48.8837 26.447 49.8778 29.0536 49.8334 31.7464C49.8334 42.1395 43.5026 44.4417 37.4766 45.1188C38.1229 45.7739 38.6207 46.5604 38.9362 47.4249C39.2516 48.2895 39.3773 49.2118 39.3047 50.1292C39.3047 53.7516 39.2708 56.663 39.2708 57.5771C39.2708 58.2881 39.7787 59.1344 41.1328 58.8636C47.223 56.813 52.3862 52.6648 55.7007 47.1595C59.0153 41.6543 60.2655 35.1502 59.2282 28.8084C58.1909 22.4666 54.9336 16.6998 50.0378 12.5375C45.1419 8.37514 38.9261 6.08818 32.5 6.08484Z" fill="#CF9FFF"/>
</svg>
