<svg width="59" height="59" viewBox="0 0 59 59" fill="none" xmlns="http://www.w3.org/2000/svg">
<path d="M29.5 51.625C41.7193 51.625 51.625 41.7193 51.625 29.5C51.625 17.2807 41.7193 7.375 29.5 7.375C17.2807 7.375 7.375 17.2807 7.375 29.5C7.375 41.7193 17.2807 51.625 29.5 51.625Z" fill="#B0BEC5"/>
<path d="M51.625 29.5C51.625 41.7191 41.7191 51.625 29.5 51.625C29.5 51.625 43.0208 47.5577 43.0208 29.5C43.0208 11.4423 29.5 7.375 29.5 7.375C41.7191 7.375 51.625 17.2809 51.625 29.5Z" fill="#90A4AE"/>
<path d="M20.8958 23.3542C22.2535 23.3542 23.3542 22.2535 23.3542 20.8958C23.3542 19.5381 22.2535 18.4375 20.8958 18.4375C19.5381 18.4375 18.4375 19.5381 18.4375 20.8958C18.4375 22.2535 19.5381 23.3542 20.8958 23.3542Z" fill="#90A4AE"/>
<path d="M29.4999 35.6458C32.2153 35.6458 34.4166 33.4446 34.4166 30.7292C34.4166 28.0138 32.2153 25.8125 29.4999 25.8125C26.7845 25.8125 24.5833 28.0138 24.5833 30.7292C24.5833 33.4446 26.7845 35.6458 29.4999 35.6458Z" fill="#90A4AE"/>
<path d="M39.3333 44.25C40.691 44.25 41.7917 43.1494 41.7917 41.7917C41.7917 40.434 40.691 39.3333 39.3333 39.3333C37.9756 39.3333 36.875 40.434 36.875 41.7917C36.875 43.1494 37.9756 44.25 39.3333 44.25Z" fill="#B0BEC5"/>
<path d="M41.7917 25.8125C43.8283 25.8125 45.4792 24.1616 45.4792 22.125C45.4792 20.0884 43.8283 18.4375 41.7917 18.4375C39.7552 18.4375 38.1042 20.0884 38.1042 22.125C38.1042 24.1616 39.7552 25.8125 41.7917 25.8125Z" fill="#B0BEC5"/>
</svg>
