<svg width="64" height="64" viewBox="0 0 64 64" fill="none" xmlns="http://www.w3.org/2000/svg">
<path d="M50.9547 33.0026C50.6418 32.6453 50.3121 32.287 49.9654 31.9279C50.2072 31.6719 50.4418 31.4168 50.6694 31.1626C54.9494 26.3519 56.7574 21.5253 55.0827 18.6266C53.4774 15.8453 48.7014 15.0159 42.7201 16.1786C42.1316 16.2941 41.5458 16.4239 40.9627 16.5679C40.8507 16.1839 40.7325 15.8017 40.6081 15.4213C38.5787 9.30659 35.3014 5.33059 31.9521 5.33325C28.7414 5.33325 25.6374 9.05859 23.6561 14.8213C23.4605 15.3901 23.2801 15.9626 23.1147 16.5386C22.7254 16.4426 22.3343 16.3537 21.9414 16.2719C15.6321 14.9786 10.5521 15.8319 8.88006 18.7359C7.27739 21.5173 8.95206 26.0693 12.9547 30.6613C13.3529 31.1146 13.7618 31.559 14.1814 31.9946C13.6854 32.5013 13.2187 33.0106 12.7814 33.5173C8.87472 38.0453 7.29606 42.5199 8.89606 45.2906C10.5494 48.1546 15.5574 49.0906 21.6561 47.8906C22.1503 47.7928 22.6418 47.6826 23.1307 47.5599C23.3085 48.1839 23.5049 48.8035 23.7201 49.4186C25.6934 55.0639 28.7787 58.6666 31.9787 58.6666C35.2854 58.6666 38.5974 54.7919 40.6054 48.9092C40.7654 48.4452 40.9121 47.9626 41.0561 47.4666C41.6872 47.623 42.3227 47.7617 42.9627 47.8826C48.8374 48.9946 53.5014 48.1226 55.0987 45.3493C56.7494 42.4826 55.0454 37.6773 50.9547 33.0026ZM10.8534 19.8719C11.8827 18.0853 16.0347 17.3866 21.4827 18.5066C21.8312 18.5777 22.1858 18.6577 22.5467 18.7466C22.0142 21.0995 21.6382 23.4852 21.4214 25.8879C19.4567 27.2694 17.5835 28.7766 15.8134 30.3999C15.4241 29.9964 15.0445 29.583 14.6747 29.1599C11.2427 25.2293 9.88806 21.5493 10.8534 19.8719ZM21.2187 35.1466C19.8587 34.1146 18.5921 33.0586 17.4427 31.9973C18.5894 30.9413 19.8561 29.8906 21.2161 28.8613C21.1663 29.9084 21.1423 30.9564 21.1441 32.0053C21.1441 33.0541 21.1689 34.1013 21.2187 35.1466ZM21.2187 45.6533C18.9073 46.168 16.5209 46.253 14.1787 45.9039C13.5366 45.8537 12.9117 45.6723 12.3424 45.371C11.7732 45.0696 11.2719 44.6547 10.8694 44.1519C9.89606 42.4719 11.1654 38.8773 14.5067 35.0053C14.9263 34.5199 15.3601 34.047 15.8081 33.5866C17.579 35.2199 19.4559 36.7343 21.4267 38.1199C21.6457 40.553 22.0252 42.9689 22.5627 45.3519C22.1183 45.4639 21.6694 45.5653 21.2161 45.6559L21.2187 45.6533ZM40.1521 24.2159C39.2578 23.6524 38.3529 23.1075 37.4374 22.5813C36.5343 22.0621 35.6214 21.5617 34.6987 21.0799C36.2801 20.4159 37.8347 19.8479 39.3361 19.3866C39.6891 20.9816 39.9614 22.5934 40.1521 24.2159ZM25.8134 15.5599C27.5094 10.6266 30.0214 7.61325 31.9574 7.61325C34.0187 7.61059 36.6961 10.8613 38.4481 16.1386C38.5618 16.4835 38.6685 16.8301 38.7681 17.1786C36.4682 17.8914 34.2179 18.7555 32.0321 19.7653C29.8534 18.7431 27.6083 17.8691 25.3121 17.1493C25.4667 16.6159 25.6338 16.0861 25.8134 15.5599ZM24.7467 19.3573C26.3123 19.85 27.852 20.4214 29.3601 21.0693C27.4898 22.0328 25.6694 23.0826 23.8987 24.2186C24.1121 22.5173 24.3974 20.8879 24.7467 19.3573ZM23.9014 39.7839C24.7849 40.351 25.6818 40.8959 26.5921 41.4186C27.5201 41.9519 28.4596 42.4639 29.4107 42.9546C27.8919 43.6249 26.3396 44.2168 24.7601 44.7279C24.393 43.0959 24.1065 41.4468 23.9014 39.7866V39.7839ZM38.4507 48.1733C37.7413 50.432 36.6222 52.5409 35.1494 54.3946C34.7858 54.926 34.317 55.3772 33.7721 55.7202C33.2272 56.0633 32.6178 56.291 31.9814 56.3892C30.0374 56.3892 27.5601 53.4959 25.8747 48.6666C25.6756 48.0959 25.4925 47.5199 25.3254 46.9386C27.6326 46.1943 29.8866 45.2945 32.0721 44.2453C34.2765 45.2632 36.5454 46.1353 38.8641 46.8559C38.7361 47.2986 38.5983 47.7377 38.4507 48.1733ZM39.4161 44.6426C37.8987 44.1732 36.3227 43.5946 34.7174 42.9199C35.6223 42.4453 36.5334 41.943 37.4507 41.4132C38.3929 40.8693 39.3103 40.3119 40.2027 39.7413C40.0245 41.3874 39.7619 43.0233 39.4161 44.6426ZM40.6081 31.9946C40.6081 33.6141 40.5574 35.2319 40.4561 36.8479C39.1414 37.7386 37.7547 38.6079 36.3121 39.4399C34.8721 40.2693 33.4507 41.0319 32.0534 41.7226C30.5832 41.0186 29.1414 40.2595 27.7281 39.4453C26.3236 38.6364 24.9512 37.775 23.6107 36.8613C23.4863 35.2435 23.4241 33.6239 23.4241 32.0026C23.4241 30.383 23.4845 28.7644 23.6054 27.1466C26.2861 25.3164 29.1012 23.6913 32.0267 22.2853C33.4774 22.991 34.9023 23.7475 36.3014 24.5546C37.7058 25.3617 39.0836 26.2141 40.4347 27.1119C40.5503 28.7368 40.6081 30.3644 40.6081 31.9946ZM43.1574 18.4133C48.2827 17.4186 52.1441 18.0879 53.1121 19.7653C54.1441 21.5519 52.6667 25.4933 48.9681 29.6479C48.7636 29.8773 48.5521 30.1075 48.3334 30.3386C46.532 28.7101 44.6218 27.2062 42.6161 25.8373C42.4141 23.4611 42.0533 21.1012 41.5361 18.7733C42.0872 18.6381 42.6276 18.5181 43.1574 18.4133ZM42.8107 28.7733C44.1642 29.7611 45.4655 30.8185 46.7094 31.9413C45.4713 33.082 44.1744 34.1572 42.8241 35.1626C42.8649 34.1066 42.8854 33.0506 42.8854 31.9946C42.8854 30.9208 42.8605 29.847 42.8107 28.7733ZM53.1281 44.2106C52.1574 45.8933 48.4134 46.5946 43.3867 45.6453C42.8107 45.5368 42.2205 45.407 41.6161 45.2559C42.1208 42.8979 42.4656 40.5084 42.6481 38.1039C44.6502 36.7119 46.5543 35.1839 48.3467 33.5306C48.6614 33.8559 48.9601 34.1795 49.2427 34.5013C50.8455 36.2441 52.1138 38.2672 52.9841 40.4692C53.2626 41.0499 53.4191 41.6815 53.4438 42.325C53.4686 42.9685 53.3611 43.6103 53.1281 44.2106ZM29.6107 27.8346C28.795 28.3056 28.1373 29.0079 27.7207 29.8527C27.3042 30.6975 27.1474 31.6468 27.2704 32.5806C27.3933 33.5145 27.7904 34.3909 28.4114 35.0991C29.0324 35.8073 29.8495 36.3155 30.7593 36.5593C31.6691 36.8032 32.6307 36.7718 33.5227 36.4691C34.4147 36.1665 35.1968 35.6061 35.7703 34.8589C36.3439 34.1117 36.6829 33.2113 36.7447 32.2714C36.8065 31.3315 36.5882 30.3944 36.1174 29.5786C35.8047 29.0368 35.3884 28.5619 34.8922 28.181C34.3959 27.8001 33.8295 27.5207 33.2253 27.3588C32.6211 27.1968 31.9909 27.1555 31.3707 27.2371C30.7505 27.3188 30.1524 27.5218 29.6107 27.8346Z" fill="#6563FF"/>
</svg>
