<svg width="64" height="64" viewBox="0 0 64 64" fill="none" xmlns="http://www.w3.org/2000/svg">
<path d="M49.9394 36.9454C48.9697 37.2364 48.2909 37.6242 47.7091 38.0121C45.2848 39.3697 44.1212 38.8848 41.7939 37.8182C37.8182 36.0727 34.8121 35.5879 30.6424 37.9151C28.5091 39.0788 26.9576 39.0788 24.9212 37.9151C23.7576 37.2364 22.1091 36.3636 19.2 36.3636C18.4242 36.3636 17.7454 36.4606 17.0667 36.5576C19.3939 29.8667 21.0424 18.9091 13.5757 7.75757C13.3818 7.46666 13.3818 7.07878 13.5757 6.6909C13.7697 6.39999 14.1576 6.20605 14.4485 6.20605C14.8363 6.20605 45.4788 8.72727 49.9394 36.9454ZM63.0303 56.8242C63.0303 57.4061 62.6424 57.7939 62.0606 57.7939C59.6363 57.7939 58.3757 57.1151 57.3091 56.4364C54.7879 54.9818 52.3636 54.9818 49.6485 56.4364C46.4485 58.1818 43.3454 58.1818 40.1454 56.4364C37.6242 54.9818 35.2 54.9818 32.4848 56.4364C29.2848 58.1818 26.1818 58.1818 22.9818 56.4364C20.3636 54.9818 17.9394 54.9818 15.3212 56.4364C12.1212 58.1818 9.01817 58.1818 5.81817 56.4364C4.7515 55.8545 3.87877 55.3697 2.03635 55.3697C1.5515 55.3697 1.06665 54.9818 1.06665 54.4C1.06665 53.9151 1.5515 53.4303 2.03635 53.4303C4.46059 53.4303 5.7212 54.1091 6.78786 54.7879C9.40604 56.2424 11.8303 56.2424 14.4485 54.7879C17.6485 53.0424 20.7515 52.9454 23.9515 54.7879C26.4727 56.2424 28.9939 56.2424 31.6121 54.7879C34.8121 52.9454 38.0121 53.0424 41.1151 54.7879C43.7333 56.2424 46.1576 56.2424 48.7757 54.7879C51.9757 52.9454 55.0788 52.9454 58.2788 54.7879C59.3454 55.3697 60.2182 55.8545 62.0606 55.8545C62.6424 55.8545 63.0303 56.2424 63.0303 56.8242ZM63.0303 49.2606C63.0303 49.7454 62.6424 50.2303 62.0606 50.2303C59.6363 50.2303 58.3757 49.5515 57.3091 48.8727C54.7879 47.4182 52.2667 47.4182 49.6485 48.8727C46.4485 50.6182 43.3454 50.7151 40.1454 48.8727C37.6242 47.4182 35.103 47.4182 32.4848 48.8727C29.2848 50.6182 26.1818 50.7151 22.9818 48.8727C20.3636 47.4182 17.9394 47.4182 15.3212 48.8727C12.1212 50.7151 8.9212 50.6182 5.81817 48.8727C4.7515 48.2909 3.87877 47.806 2.03635 47.806C1.5515 47.806 1.06665 47.3212 1.06665 46.8364C1.06665 46.2545 1.5515 45.8667 2.03635 45.8667C4.46059 45.8667 5.7212 46.5454 6.78786 47.2242C9.40604 48.6788 11.8303 48.6788 14.4485 47.2242C17.6485 45.4788 20.7515 45.4788 23.9515 47.2242C26.5697 48.6788 28.897 48.6788 31.6121 47.2242C34.7151 45.4788 37.9151 45.3818 41.1151 47.2242C43.7333 48.6788 46.1576 48.6788 48.7757 47.2242C52.0727 45.3818 55.1757 45.4788 58.2788 47.2242C59.3454 47.8061 60.2182 48.2909 62.0606 48.2909C62.6424 48.2909 63.0303 48.6788 63.0303 49.2606Z" fill="#0000FF"/>
<path d="M0.969727 39.2727C0.969727 38.7878 1.45458 38.303 1.93942 38.303C7.27276 38.303 8.53336 42.8606 14.3515 39.6606C15.5152 39.0787 16.7758 38.303 19.1031 38.303C21.5273 38.303 22.7879 38.9818 23.8546 39.6606C26.4728 41.1151 28.8 41.1151 31.5152 39.6606C37.9152 35.9757 40.9212 40.7272 44.897 40.7272C46.7394 40.7272 47.7091 40.2424 48.6788 39.6606C49.7455 39.0787 51.0061 38.303 53.4303 38.303C55.8546 38.303 57.1152 38.9818 58.1819 39.6606C59.2485 40.2424 60.1212 40.7272 61.9637 40.7272C62.5455 40.7272 62.9334 41.1151 62.9334 41.6969C62.9334 42.1818 62.5455 42.6666 61.9637 42.6666C59.5394 42.6666 58.2788 41.9878 57.2122 41.309C56.1455 40.7272 55.2728 40.2424 53.4303 40.2424C51.4909 40.2424 50.6182 40.7272 49.6485 41.309C48.4849 41.9878 47.3212 42.6666 44.897 42.6666C39.8546 42.6666 38.2061 38.109 32.4849 41.309C29.2849 43.0545 26.1818 43.1515 22.9818 41.309C20.3637 39.8545 17.9394 39.8545 15.3212 41.309C8.82427 44.9939 6.01215 40.2424 1.93942 40.2424C1.45458 40.2424 0.969727 39.8545 0.969727 39.2727Z" fill="#0000FF"/>
</svg>
