<svg width="55" height="55" viewBox="0 0 55 55" fill="none" xmlns="http://www.w3.org/2000/svg">
<path d="M53.2125 29.1271L50.1187 32.4042C49.844 32.6871 49.6469 33.0361 49.5465 33.4175C49.4462 33.7989 49.4459 34.1997 49.5458 34.5812L50.5771 38.9583C50.6567 39.2503 50.6776 39.5551 50.6388 39.8551C50.6 40.1552 50.5021 40.4446 50.3508 40.7067C50.1996 40.9688 49.9979 41.1983 49.7575 41.382C49.517 41.5657 49.2426 41.7 48.95 41.7771L44.6417 43.0604C44.258 43.1656 43.9084 43.3688 43.6271 43.6501C43.3459 43.9313 43.1427 44.281 43.0375 44.6646L41.7542 48.9729C41.6771 49.2655 41.5428 49.5399 41.3591 49.7804C41.1754 50.0208 40.9459 50.2225 40.6838 50.3737C40.4217 50.525 40.1323 50.6229 39.8322 50.6617C39.5321 50.7006 39.2273 50.6796 38.9354 50.6L34.5583 49.5687C34.1768 49.4688 33.776 49.4691 33.3946 49.5695C33.0132 49.6698 32.6642 49.8669 32.3812 50.1417L29.1042 53.2354C28.8911 53.4502 28.6377 53.6207 28.3584 53.737C28.0791 53.8534 27.7796 53.9133 27.4771 53.9133C27.1745 53.9133 26.875 53.8534 26.5958 53.737C26.3165 53.6207 26.063 53.4502 25.85 53.2354L22.5958 50.1187C22.3129 49.844 21.9639 49.6469 21.5825 49.5465C21.2011 49.4462 20.8003 49.4459 20.4187 49.5458L16.0417 50.5771C15.7497 50.6567 15.4449 50.6776 15.1448 50.6388C14.8448 50.6 14.5553 50.5021 14.2933 50.3508C14.0312 50.1996 13.8017 49.9979 13.618 49.7575C13.4343 49.517 13.3 49.2426 13.2229 48.95L11.9396 44.6417C11.8344 44.258 11.6312 43.9084 11.3499 43.6271C11.0687 43.3459 10.719 43.1427 10.3354 43.0375L6.02707 41.7542C5.44542 41.5933 4.95072 41.2094 4.65037 40.6859C4.35003 40.1625 4.26829 39.5417 4.42291 38.9583L5.45416 34.5812C5.55406 34.1997 5.55382 33.7989 5.45345 33.4175C5.35309 33.0361 5.15599 32.6871 4.88124 32.4042L1.78749 29.1271C1.5727 28.914 1.40221 28.6606 1.28586 28.3813C1.16952 28.1021 1.10962 27.8025 1.10962 27.5C1.10962 27.1975 1.16952 26.8979 1.28586 26.6187C1.40221 26.3394 1.5727 26.0859 1.78749 25.8729L4.88124 22.5958C5.15599 22.3129 5.35309 21.9639 5.45345 21.5825C5.55382 21.2011 5.55406 20.8003 5.45416 20.4187L4.42291 16.0417C4.34333 15.7497 4.32235 15.4449 4.36118 15.1448C4.40001 14.8448 4.49788 14.5553 4.64915 14.2933C4.80042 14.0312 5.00209 13.8017 5.24253 13.618C5.48296 13.4343 5.75739 13.3 6.04999 13.2229L10.3583 11.9396C10.7419 11.8344 11.0916 11.6312 11.3728 11.3499C11.6541 11.0687 11.8573 10.719 11.9625 10.3354L13.2458 6.02707C13.4067 5.44542 13.7906 4.95072 14.314 4.65037C14.8375 4.35003 15.4583 4.26829 16.0417 4.42291L20.4187 5.45416C20.8003 5.55406 21.2011 5.55382 21.5825 5.45345C21.9639 5.35309 22.3129 5.15599 22.5958 4.88124L25.8729 1.78749C26.0859 1.5727 26.3394 1.40221 26.6187 1.28586C26.8979 1.16952 27.1975 1.10962 27.5 1.10962C27.8025 1.10962 28.1021 1.16952 28.3813 1.28586C28.6606 1.40221 28.914 1.5727 29.1271 1.78749L32.4042 4.88124C32.6871 5.15599 33.0361 5.35309 33.4175 5.45345C33.7989 5.55382 34.1997 5.55406 34.5812 5.45416L38.9583 4.42291C39.2503 4.34333 39.5551 4.32235 39.8551 4.36118C40.1552 4.40001 40.4446 4.49788 40.7067 4.64915C40.9688 4.80042 41.1983 5.00209 41.382 5.24253C41.5657 5.48296 41.7 5.75739 41.7771 6.04999L43.0604 10.3583C43.1656 10.7419 43.3688 11.0916 43.6501 11.3728C43.9313 11.6541 44.281 11.8573 44.6646 11.9625L48.9729 13.2458C49.5546 13.4067 50.0493 13.7906 50.3496 14.314C50.65 14.8375 50.7317 15.4583 50.5771 16.0417L49.5458 20.4187C49.4459 20.8003 49.4462 21.2011 49.5465 21.5825C49.6469 21.9639 49.844 22.3129 50.1187 22.5958L53.2125 25.8729C53.4273 26.0859 53.5978 26.3394 53.7141 26.6187C53.8305 26.8979 53.8904 27.1975 53.8904 27.5C53.8904 27.8025 53.8305 28.1021 53.7141 28.3813C53.5978 28.6606 53.4273 28.914 53.2125 29.1271Z" fill="#EEB300"/>
<path d="M27.5 44.6875C36.9924 44.6875 44.6875 36.9924 44.6875 27.5C44.6875 18.0076 36.9924 10.3125 27.5 10.3125C18.0076 10.3125 10.3125 18.0076 10.3125 27.5C10.3125 36.9924 18.0076 44.6875 27.5 44.6875Z" fill="#FDD331"/>
</svg>
