<svg width="64" height="64" viewBox="0 0 64 64" fill="none" xmlns="http://www.w3.org/2000/svg">
<path fill-rule="evenodd" clip-rule="evenodd" d="M9.21814 17.1387L29.6007 5.38368C30.3662 4.94222 31.3446 5.20488 31.7861 5.97036C31.9263 6.21343 32.0001 6.4891 32.0001 6.7697V57.0289C32.0001 57.9125 31.2837 58.6289 30.4001 58.6289C30.087 58.6289 29.7809 58.5371 29.5195 58.3648L23.5428 54.425C23.0937 54.1289 22.8234 53.627 22.8234 53.0891V24.1733C22.8234 23.2897 22.107 22.5733 21.2234 22.5733C20.9352 22.5733 20.6525 22.6511 20.4049 22.7985L10.836 28.4955C10.0767 28.9476 9.09474 28.6985 8.64269 27.9392C8.49529 27.6917 8.41748 27.4089 8.41748 27.1207V18.5247C8.41748 17.9528 8.72273 17.4244 9.21814 17.1387Z" fill="#B08CBA"/>
<path fill-rule="evenodd" clip-rule="evenodd" d="M57.1835 17.1387L36.8009 5.38368C36.0354 4.94222 35.057 5.20488 34.6155 5.97036C34.4753 6.21343 34.4015 6.4891 34.4015 6.7697V57.0289C34.4015 57.9125 35.1179 58.6289 36.0015 58.6289C36.3146 58.6289 36.6208 58.5371 36.8821 58.3648L42.8588 54.425C43.3079 54.1289 43.5782 53.627 43.5782 53.0891V24.1733C43.5782 23.2897 44.2946 22.5733 45.1782 22.5733C45.4664 22.5733 45.7492 22.6511 45.9967 22.7985L55.5656 28.4955C56.3249 28.9476 57.3069 28.6985 57.7589 27.9392C57.9063 27.6917 57.9841 27.4089 57.9841 27.1207V18.5247C57.9841 17.9528 57.6789 17.4244 57.1835 17.1387Z" fill="#B08CBA"/>
<path fill-rule="evenodd" clip-rule="evenodd" d="M43.5474 27.5603L50.5758 31.5404C51.0773 31.8244 51.3874 32.3563 51.3874 32.9327V40.0426C51.3874 40.9262 50.671 41.6426 49.7874 41.6426C49.5041 41.6426 49.226 41.5674 48.9813 41.4247L43.5474 38.2556V27.5603Z" fill="#B08CBA"/>
</svg>
