<svg width="65" height="64" viewBox="0 0 65 64" fill="none" xmlns="http://www.w3.org/2000/svg">
<path d="M63.3095 9.42952L34.1613 61.5516C33.5594 62.6277 32.0133 62.634 31.4024 61.5631L1.6763 9.43454C1.01083 8.26754 2.00874 6.85398 3.33118 7.09035L32.5106 12.306C32.6967 12.3393 32.8873 12.339 33.0734 12.305L61.6426 7.09783C62.9606 6.85761 63.9632 8.26022 63.3095 9.42952Z" fill="url(#paint0_linear_133_1413)"/>
<path d="M46.4103 0.249426L24.8398 4.47609C24.4852 4.54555 24.2228 4.846 24.2014 5.20657L22.8745 27.6166C22.8433 28.1445 23.328 28.5542 23.8432 28.4353L29.8487 27.0494C30.4106 26.9198 30.9184 27.4147 30.8029 27.9797L29.0186 36.7168C28.8986 37.3049 29.4506 37.8077 30.0249 37.6333L33.7342 36.5063C34.3092 36.3317 34.8618 36.836 34.7401 37.4245L31.9047 51.1485C31.7272 52.007 32.8691 52.4751 33.3453 51.7391L33.6634 51.2475L51.2403 16.1698C51.5346 15.5825 51.027 14.9128 50.382 15.0373L44.2003 16.2304C43.6193 16.3424 43.1251 15.8014 43.289 15.233L47.3237 1.24626C47.4879 0.676949 46.9919 0.135491 46.4103 0.249426Z" fill="url(#paint1_linear_133_1413)"/>
<defs>
<linearGradient id="paint0_linear_133_1413" x1="0.950489" y1="5.2276" x2="37.2277" y2="54.4949" gradientUnits="userSpaceOnUse">
<stop stop-color="#41D1FF"/>
<stop offset="1" stop-color="#BD34FE"/>
</linearGradient>
<linearGradient id="paint1_linear_133_1413" x1="30.8358" y1="1.39693" x2="37.3982" y2="46.4141" gradientUnits="userSpaceOnUse">
<stop stop-color="#FFEA83"/>
<stop offset="0.083" stop-color="#FFDD35"/>
<stop offset="1" stop-color="#FFA800"/>
</linearGradient>
</defs>
</svg>
